<?xml version="1.0" encoding="UTF-8" standalone="no"?>
<!-- Created with Keyshape -->
<svg xmlns="http://www.w3.org/2000/svg" width="353px" height="324px" viewBox="0 0 353 324">
    <style>
@keyframes b8e4sz14ta787d6g3f42sr8k_t { 0% { transform: translate(70.084127px,166.335485px); } 33.3333% { transform: translate(70.084127px,205.5px); } 100% { transform: translate(70.084127px,205.5px); } }
@keyframes b8e4sz14ta787d6g3f42sr8k_o { 0% { opacity: 0; } 16.6667% { opacity: 1; } 33.3333% { opacity: 0; } 100% { opacity: 0; } }
    </style>
    <title>Naama</title>
    <g id="h928tqul3w7k2tsqqije8cl9" stroke="none" stroke-width="1" fill="none" fill-rule="evenodd" transform="translate(177.189,164.406) translate(-177.189,-164.406)">
        <path id="iyuj8as3lzlto7likyudu030" d="M143.192,117.042C140.215,117.357,137.265,119.4,137.19,123.694C137.151,125.993,137.933,127.384,139.107,128.673C139.502,129.107,139.903,129.462,140.38,129.839L142.573,131.417L146.049,133.865C147.014,134.566,147.878,135.222,148.925,136.046C155.613,141.305,161.937,147.682,167.935,155.895C185.529,179.991,196.078,214.067,196.078,260.897C196.078,307.789,185.511,342.353,167.884,367.173C161.87,375.64,155.522,382.281,148.838,387.778C147.57,388.82,146.512,389.652,145.284,390.572L140.638,393.985L140.339,394.221C139.821,394.645,139.512,394.921,139.143,395.322C137.988,396.574,137.231,397.844,137.19,400.085C137.105,404.776,140.379,406.839,143.544,406.991C144.431,407.034,145.181,406.919,145.985,406.71C146.916,406.468,147.978,406.061,149.169,405.51C151.601,404.387,154.557,402.672,157.706,400.506C165.898,394.871,174.371,386.989,182.195,377.045C204.042,349.279,217.189,310.785,217.189,260.897C217.189,210.981,204.037,172.849,182.176,145.755C174.329,136.029,165.824,128.396,157.614,123.032C154.438,120.957,151.456,119.334,149.003,118.297C147.783,117.781,146.693,117.409,145.727,117.203C144.891,117.025,144.107,116.945,143.192,117.042Z" fill="#1A1A1A" fill-rule="nonzero" transform="translate(177.189,262) rotate(-450) translate(-177.189,-262)"/>
        <path id="d7wca0widb53l10nlgdkwiir" d="M243.187,94.3111C255.46,94.3111,281.654,84.8696,281.654,47.3111C281.654,9.7527,255.46,0.311149,243.187,0.311149C230.914,0.311149,267.236,10.081,267.236,47.6394C267.236,85.1979,230.914,94.3111,243.187,94.3111Z" stroke="#1A1A1A" stroke-width="5" fill="#1A1A1A" transform="translate(261.154,47.3111) rotate(90) translate(-261.154,-47.3111)"/>
        <g id="iwjgwts8gqzappvfeptp4khh" fill="#1A1A1A" stroke="#1A1A1A" stroke-width="9" transform="translate(261.428,113.242) translate(-20,-55.2418)">
            <path id="gc7wxxm24h51x12p1frtp5oa" d="M20,110C31.0457,110,40,76.4214,40,35C40,-6.42136,31.0457,1,20,1C8.9543,1,0,-6.42136,0,35C0,76.4214,8.9543,110,20,110Z" transform="translate(20,55.2418) translate(-20,-55.2418)"/>
        </g>
        <path id="hr36m5h1d8i1ng2lxzxh0zdk" d="M76.187,94.3111C88.46,94.3111,114.654,84.8696,114.654,47.3111C114.654,9.7527,88.46,0.311149,76.187,0.311149C63.9139,0.311149,100.236,10.081,100.236,47.6394C100.236,85.1979,63.9139,94.3111,76.187,94.3111Z" stroke="#1A1A1A" stroke-width="5" fill="#1A1A1A" transform="translate(94.1544,47.3111) rotate(90) translate(-94.1544,-47.3111)"/>
        <g id="wo0vg435q0bdwsdxpexzclnz" fill="#1A1A1A" stroke="#1A1A1A" stroke-width="9" transform="translate(94.4283,113.242) translate(-20,-55.2418)">
            <path id="zavgfuvv51diwlueri8g72nb" d="M20,110C31.0457,110,40,76.4214,40,35C40,-6.42136,31.0457,1,20,1C8.9543,1,0,-6.42136,0,35C0,76.4214,8.9543,110,20,110Z" transform="translate(20,55.2418) translate(-20,-55.2418)"/>
        </g>
    </g>
    <g id="b8e4sz14ta787d6g3f42sr8k" stroke="none" stroke-width="1" fill="none" fill-rule="evenodd" opacity="0" transform="translate(76.0841,182.835) translate(-6,-16.5)" style="animation: 3s linear infinite both b8e4sz14ta787d6g3f42sr8k_t, 3s linear infinite both b8e4sz14ta787d6g3f42sr8k_o;">
        <path id="nrrt9fblunk5htlyduihwo7k" d="M5.81481,31C7.86031,31,11,28.4221,11,21.0976C11,13.7731,7.86031,2,5.81481,2C3.76932,2,1,13.7731,1,21.0976C1,28.4221,3.76932,31,5.81481,31Z" fill="#1A1A1A" transform="translate(6,16.5) translate(-6,-16.5)"/>
    </g>
</svg>
